<svg xmlns="http://www.w3.org/2000/svg" version="1.1" width="596" height="66">
<path d="M 2.878906 13.319336 L 2.878906 6.412109 L 6.729980 6.412109 L 6.729980 7.335938 L 3.738281 7.335938 L 3.738281 13.319336 Z " fill="rgb(0, 0, 0)" fill-opacity="1.000000" />
<path d="M 2.878906 26.319336 L 2.878906 12.300781 L 3.738281 12.300781 L 3.738281 26.319336 Z " fill="rgb(0, 0, 0)" fill-opacity="1.000000" />
<path d="M 2.878906 39.319336 L 2.878906 25.300781 L 3.738281 25.300781 L 3.738281 39.319336 Z " fill="rgb(0, 0, 0)" fill-opacity="1.000000" />
<path d="M 2.878906 52.319336 L 2.878906 38.300781 L 3.738281 38.300781 L 3.738281 52.319336 Z " fill="rgb(0, 0, 0)" fill-opacity="1.000000" />
<path d="M 2.878906 59.335938 L 2.878906 51.300781 L 3.738281 51.300781 L 3.738281 58.412109 L 6.729980 58.412109 L 6.729980 59.335938 Z " fill="rgb(0, 0, 0)" fill-opacity="1.000000" />
<path d="M 6.892578 59.335938 L 6.892578 58.412109 L 13.729980 58.412109 L 13.729980 59.335938 Z " fill="rgb(0, 0, 0)" fill-opacity="1.000000" />
<path d="M 13.892578 59.335938 L 13.892578 58.412109 L 20.729980 58.412109 L 20.729980 59.335938 Z " fill="rgb(0, 0, 0)" fill-opacity="1.000000" />
<path d="M 20.892578 59.335938 L 20.892578 58.412109 L 27.729980 58.412109 L 27.729980 59.335938 Z " fill="rgb(0, 0, 0)" fill-opacity="1.000000" />
<path d="M 27.892578 59.335938 L 27.892578 58.412109 L 34.729980 58.412109 L 34.729980 59.335938 Z " fill="rgb(0, 0, 0)" fill-opacity="1.000000" />
<path d="M 34.892578 59.335938 L 34.892578 58.412109 L 41.729980 58.412109 L 41.729980 59.335938 Z " fill="rgb(0, 0, 0)" fill-opacity="1.000000" />
<path d="M 41.892578 59.335938 L 41.892578 58.412109 L 48.729980 58.412109 L 48.729980 59.335938 Z " fill="rgb(0, 0, 0)" fill-opacity="1.000000" />
<path d="M 48.892578 59.335938 L 48.892578 58.412109 L 55.729980 58.412109 L 55.729980 59.335938 Z " fill="rgb(0, 0, 0)" fill-opacity="1.000000" />
<path d="M 55.892578 59.335938 L 55.892578 58.412109 L 62.729980 58.412109 L 62.729980 59.335938 Z " fill="rgb(0, 0, 0)" fill-opacity="1.000000" />
<path d="M 62.892578 59.335938 L 62.892578 58.412109 L 69.729980 58.412109 L 69.729980 59.335938 Z " fill="rgb(0, 0, 0)" fill-opacity="1.000000" />
<path d="M 69.892578 59.335938 L 69.892578 58.412109 L 76.729980 58.412109 L 76.729980 59.335938 Z " fill="rgb(0, 0, 0)" fill-opacity="1.000000" />
<path d="M 76.892578 59.335938 L 76.892578 58.412109 L 83.729980 58.412109 L 83.729980 59.335938 Z " fill="rgb(0, 0, 0)" fill-opacity="1.000000" />
<path d="M 83.892578 59.335938 L 83.892578 58.412109 L 90.729980 58.412109 L 90.729980 59.335938 Z " fill="rgb(0, 0, 0)" fill-opacity="1.000000" />
<path d="M 90.892578 59.335938 L 90.892578 58.412109 L 97.729980 58.412109 L 97.729980 59.335938 Z " fill="rgb(0, 0, 0)" fill-opacity="1.000000" />
<path d="M 97.892578 59.335938 L 97.892578 58.412109 L 104.729980 58.412109 L 104.729980 59.335938 Z " fill="rgb(0, 0, 0)" fill-opacity="1.000000" />
<path d="M 104.892578 59.335938 L 104.892578 58.412109 L 111.729980 58.412109 L 111.729980 59.335938 Z " fill="rgb(0, 0, 0)" fill-opacity="1.000000" />
<path d="M 111.892578 59.335938 L 111.892578 58.412109 L 118.729980 58.412109 L 118.729980 59.335938 Z " fill="rgb(0, 0, 0)" fill-opacity="1.000000" />
<path d="M 118.892578 59.335938 L 118.892578 58.412109 L 125.729980 58.412109 L 125.729980 59.335938 Z " fill="rgb(0, 0, 0)" fill-opacity="1.000000" />
<path d="M 125.892578 59.335938 L 125.892578 58.412109 L 132.729980 58.412109 L 132.729980 59.335938 Z " fill="rgb(0, 0, 0)" fill-opacity="1.000000" />
<path d="M 132.892578 59.335938 L 132.892578 58.412109 L 139.729980 58.412109 L 139.729980 59.335938 Z " fill="rgb(0, 0, 0)" fill-opacity="1.000000" />
<path d="M 139.892578 59.335938 L 139.892578 58.412109 L 146.729980 58.412109 L 146.729980 59.335938 Z " fill="rgb(0, 0, 0)" fill-opacity="1.000000" />
<path d="M 146.892578 59.335938 L 146.892578 58.412109 L 153.729980 58.412109 L 153.729980 59.335938 Z " fill="rgb(0, 0, 0)" fill-opacity="1.000000" />
<path d="M 153.892578 59.335938 L 153.892578 58.412109 L 156.878906 58.412109 L 156.878906 51.300781 L 157.738281 51.300781 L 157.738281 59.335938 Z " fill="rgb(0, 0, 0)" fill-opacity="1.000000" />
<path d="M 219.878906 59.335938 L 219.878906 51.300781 L 220.738281 51.300781 L 220.738281 58.412109 L 223.729980 58.412109 L 223.729980 59.335938 Z " fill="rgb(0, 0, 0)" fill-opacity="1.000000" />
<path d="M 223.892578 59.335938 L 223.892578 58.412109 L 230.729980 58.412109 L 230.729980 59.335938 Z " fill="rgb(0, 0, 0)" fill-opacity="1.000000" />
<path d="M 230.892578 59.335938 L 230.892578 58.412109 L 237.729980 58.412109 L 237.729980 59.335938 Z " fill="rgb(0, 0, 0)" fill-opacity="1.000000" />
<path d="M 237.892578 59.335938 L 237.892578 58.412109 L 244.729980 58.412109 L 244.729980 59.335938 Z " fill="rgb(0, 0, 0)" fill-opacity="1.000000" />
<path d="M 244.892578 59.335938 L 244.892578 58.412109 L 251.729980 58.412109 L 251.729980 59.335938 Z " fill="rgb(0, 0, 0)" fill-opacity="1.000000" />
<path d="M 251.892578 59.335938 L 251.892578 58.412109 L 258.729980 58.412109 L 258.729980 59.335938 Z " fill="rgb(0, 0, 0)" fill-opacity="1.000000" />
<path d="M 258.892578 59.335938 L 258.892578 58.412109 L 265.729980 58.412109 L 265.729980 59.335938 Z " fill="rgb(0, 0, 0)" fill-opacity="1.000000" />
<path d="M 265.892578 59.335938 L 265.892578 58.412109 L 272.729980 58.412109 L 272.729980 59.335938 Z " fill="rgb(0, 0, 0)" fill-opacity="1.000000" />
<path d="M 272.892578 59.335938 L 272.892578 58.412109 L 279.729980 58.412109 L 279.729980 59.335938 Z " fill="rgb(0, 0, 0)" fill-opacity="1.000000" />
<path d="M 279.892578 59.335938 L 279.892578 58.412109 L 286.729980 58.412109 L 286.729980 59.335938 Z " fill="rgb(0, 0, 0)" fill-opacity="1.000000" />
<path d="M 286.892578 59.335938 L 286.892578 58.412109 L 293.729980 58.412109 L 293.729980 59.335938 Z " fill="rgb(0, 0, 0)" fill-opacity="1.000000" />
<path d="M 293.892578 59.335938 L 293.892578 58.412109 L 300.729980 58.412109 L 300.729980 59.335938 Z " fill="rgb(0, 0, 0)" fill-opacity="1.000000" />
<path d="M 300.892578 59.335938 L 300.892578 58.412109 L 307.729980 58.412109 L 307.729980 59.335938 Z " fill="rgb(0, 0, 0)" fill-opacity="1.000000" />
<path d="M 307.892578 59.335938 L 307.892578 58.412109 L 314.729980 58.412109 L 314.729980 59.335938 Z " fill="rgb(0, 0, 0)" fill-opacity="1.000000" />
<path d="M 314.892578 59.335938 L 314.892578 58.412109 L 321.729980 58.412109 L 321.729980 59.335938 Z " fill="rgb(0, 0, 0)" fill-opacity="1.000000" />
<path d="M 321.892578 59.335938 L 321.892578 58.412109 L 328.729980 58.412109 L 328.729980 59.335938 Z " fill="rgb(0, 0, 0)" fill-opacity="1.000000" />
<path d="M 328.892578 59.335938 L 328.892578 58.412109 L 335.729980 58.412109 L 335.729980 59.335938 Z " fill="rgb(0, 0, 0)" fill-opacity="1.000000" />
<path d="M 335.892578 59.335938 L 335.892578 58.412109 L 342.729980 58.412109 L 342.729980 59.335938 Z " fill="rgb(0, 0, 0)" fill-opacity="1.000000" />
<path d="M 342.892578 59.335938 L 342.892578 58.412109 L 349.729980 58.412109 L 349.729980 59.335938 Z " fill="rgb(0, 0, 0)" fill-opacity="1.000000" />
<path d="M 349.892578 59.335938 L 349.892578 58.412109 L 356.729980 58.412109 L 356.729980 59.335938 Z " fill="rgb(0, 0, 0)" fill-opacity="1.000000" />
<path d="M 356.892578 59.335938 L 356.892578 58.412109 L 363.729980 58.412109 L 363.729980 59.335938 Z " fill="rgb(0, 0, 0)" fill-opacity="1.000000" />
<path d="M 363.892578 59.335938 L 363.892578 58.412109 L 370.729980 58.412109 L 370.729980 59.335938 Z " fill="rgb(0, 0, 0)" fill-opacity="1.000000" />
<path d="M 370.892578 59.335938 L 370.892578 58.412109 L 373.878906 58.412109 L 373.878906 51.300781 L 374.738281 51.300781 L 374.738281 59.335938 Z " fill="rgb(0, 0, 0)" fill-opacity="1.000000" />
<path d="M 436.878906 59.335938 L 436.878906 51.300781 L 437.738281 51.300781 L 437.738281 58.412109 L 440.729980 58.412109 L 440.729980 59.335938 Z " fill="rgb(0, 0, 0)" fill-opacity="1.000000" />
<path d="M 440.892578 59.335938 L 440.892578 58.412109 L 447.729980 58.412109 L 447.729980 59.335938 Z " fill="rgb(0, 0, 0)" fill-opacity="1.000000" />
<path d="M 447.892578 59.335938 L 447.892578 58.412109 L 454.729980 58.412109 L 454.729980 59.335938 Z " fill="rgb(0, 0, 0)" fill-opacity="1.000000" />
<path d="M 454.892578 59.335938 L 454.892578 58.412109 L 461.729980 58.412109 L 461.729980 59.335938 Z " fill="rgb(0, 0, 0)" fill-opacity="1.000000" />
<path d="M 461.892578 59.335938 L 461.892578 58.412109 L 468.729980 58.412109 L 468.729980 59.335938 Z " fill="rgb(0, 0, 0)" fill-opacity="1.000000" />
<path d="M 468.892578 59.335938 L 468.892578 58.412109 L 475.729980 58.412109 L 475.729980 59.335938 Z " fill="rgb(0, 0, 0)" fill-opacity="1.000000" />
<path d="M 475.892578 59.335938 L 475.892578 58.412109 L 482.729980 58.412109 L 482.729980 59.335938 Z " fill="rgb(0, 0, 0)" fill-opacity="1.000000" />
<path d="M 482.892578 59.335938 L 482.892578 58.412109 L 489.729980 58.412109 L 489.729980 59.335938 Z " fill="rgb(0, 0, 0)" fill-opacity="1.000000" />
<path d="M 489.892578 59.335938 L 489.892578 58.412109 L 496.729980 58.412109 L 496.729980 59.335938 Z " fill="rgb(0, 0, 0)" fill-opacity="1.000000" />
<path d="M 496.892578 59.335938 L 496.892578 58.412109 L 503.729980 58.412109 L 503.729980 59.335938 Z " fill="rgb(0, 0, 0)" fill-opacity="1.000000" />
<path d="M 503.892578 59.335938 L 503.892578 58.412109 L 510.729980 58.412109 L 510.729980 59.335938 Z " fill="rgb(0, 0, 0)" fill-opacity="1.000000" />
<path d="M 510.892578 59.335938 L 510.892578 58.412109 L 517.729980 58.412109 L 517.729980 59.335938 Z " fill="rgb(0, 0, 0)" fill-opacity="1.000000" />
<path d="M 517.892578 59.335938 L 517.892578 58.412109 L 524.729980 58.412109 L 524.729980 59.335938 Z " fill="rgb(0, 0, 0)" fill-opacity="1.000000" />
<path d="M 524.892578 59.335938 L 524.892578 58.412109 L 531.729980 58.412109 L 531.729980 59.335938 Z " fill="rgb(0, 0, 0)" fill-opacity="1.000000" />
<path d="M 531.892578 59.335938 L 531.892578 58.412109 L 538.729980 58.412109 L 538.729980 59.335938 Z " fill="rgb(0, 0, 0)" fill-opacity="1.000000" />
<path d="M 538.892578 59.335938 L 538.892578 58.412109 L 545.729980 58.412109 L 545.729980 59.335938 Z " fill="rgb(0, 0, 0)" fill-opacity="1.000000" />
<path d="M 545.892578 59.335938 L 545.892578 58.412109 L 552.729980 58.412109 L 552.729980 59.335938 Z " fill="rgb(0, 0, 0)" fill-opacity="1.000000" />
<path d="M 552.892578 59.335938 L 552.892578 58.412109 L 559.729980 58.412109 L 559.729980 59.335938 Z " fill="rgb(0, 0, 0)" fill-opacity="1.000000" />
<path d="M 559.892578 59.335938 L 559.892578 58.412109 L 566.729980 58.412109 L 566.729980 59.335938 Z " fill="rgb(0, 0, 0)" fill-opacity="1.000000" />
<path d="M 566.892578 59.335938 L 566.892578 58.412109 L 573.729980 58.412109 L 573.729980 59.335938 Z " fill="rgb(0, 0, 0)" fill-opacity="1.000000" />
<path d="M 573.892578 59.335938 L 573.892578 58.412109 L 580.729980 58.412109 L 580.729980 59.335938 Z " fill="rgb(0, 0, 0)" fill-opacity="1.000000" />
<path d="M 580.892578 59.335938 L 580.892578 58.412109 L 587.729980 58.412109 L 587.729980 59.335938 Z " fill="rgb(0, 0, 0)" fill-opacity="1.000000" />
<path d="M 587.892578 59.335938 L 587.892578 58.412109 L 590.878906 58.412109 L 590.878906 51.300781 L 591.738281 51.300781 L 591.738281 59.335938 Z " fill="rgb(0, 0, 0)" fill-opacity="1.000000" />
<path d="M 28.198730 14.980957 L 29.353516 14.980957 L 31.308594 18.520508 L 33.258301 14.980957 L 34.423828 14.980957 L 31.851074 19.401367 L 31.851074 23.000000 L 30.760742 23.000000 L 30.760742 19.401367 Z " fill="rgb(0, 0, 0)" fill-opacity="1.000000" />
<path d="M 46.592285 40.116211 Q 45.877930 41.340820 45.526123 42.557373 Q 45.174316 43.773926 45.174316 45.009277 Q 45.174316 46.239258 45.526123 47.458496 Q 45.877930 48.677734 46.592285 49.913086 L 45.732910 49.913086 Q 44.921875 48.634766 44.524414 47.423584 Q 44.126953 46.212402 44.126953 45.009277 Q 44.126953 43.811523 44.524414 42.597656 Q 44.921875 41.383789 45.732910 40.116211 Z " fill="rgb(0, 0, 0)" fill-opacity="1.000000" />
<path d="M 55.015625 45.498047 L 55.015625 45.981445 L 50.734863 45.981445 L 50.734863 46.013672 Q 50.691895 47.243652 51.204834 47.780762 Q 51.717773 48.317871 52.652344 48.317871 Q 53.125000 48.317871 53.640625 48.167480 Q 54.156250 48.017090 54.741699 47.710938 L 54.741699 48.693848 Q 54.177734 48.924805 53.654053 49.040283 Q 53.130371 49.155762 52.641602 49.155762 Q 51.239746 49.155762 50.450195 48.315186 Q 49.660645 47.474609 49.660645 45.997559 Q 49.660645 44.558105 50.434082 43.698730 Q 51.207520 42.839355 52.496582 42.839355 Q 53.645996 42.839355 54.309326 43.618164 Q 54.972656 44.396973 55.015625 45.498047 Z M 54.027344 45.208008 Q 53.962891 44.584961 53.573486 44.131104 Q 53.184082 43.677246 52.453613 43.677246 Q 51.739258 43.677246 51.277344 44.149902 Q 50.815430 44.622559 50.772461 45.213379 Z " fill="rgb(0, 0, 0)" fill-opacity="1.000000" />
<path d="M 60.608398 45.943848 Q 60.608398 44.832031 60.245850 44.254639 Q 59.883301 43.677246 59.190430 43.677246 Q 58.465332 43.677246 58.083984 44.254639 Q 57.702637 44.832031 57.702637 45.943848 Q 57.702637 47.055664 58.086670 47.638428 Q 58.470703 48.221191 59.201172 48.221191 Q 59.883301 48.221191 60.245850 47.635742 Q 60.608398 47.050293 60.608398 45.943848 Z M 61.596680 48.613281 Q 61.596680 49.966797 60.957520 50.665039 Q 60.318359 51.363281 59.077637 51.363281 Q 58.669434 51.363281 58.223633 51.288086 Q 57.777832 51.212891 57.332031 51.067871 L 57.332031 50.090332 Q 57.858398 50.337402 58.288086 50.455566 Q 58.717773 50.573730 59.077637 50.573730 Q 59.877930 50.573730 60.243164 50.138672 Q 60.608398 49.703613 60.608398 48.758301 L 60.608398 48.715332 L 60.608398 48.043945 Q 60.372070 48.548828 59.963867 48.795898 Q 59.555664 49.042969 58.970215 49.042969 Q 57.917480 49.042969 57.289062 48.199707 Q 56.660645 47.356445 56.660645 45.943848 Q 56.660645 44.525879 57.289062 43.682617 Q 57.917480 42.839355 58.970215 42.839355 Q 59.550293 42.839355 59.953125 43.070312 Q 60.355957 43.301270 60.608398 43.784668 L 60.608398 43.005859 L 61.596680 43.005859 Z " fill="rgb(0, 0, 0)" fill-opacity="1.000000" />
<path d="M 75.929688 48.339355 Q 75.494629 48.742188 74.949463 48.948975 Q 74.404297 49.155762 73.770508 49.155762 Q 72.245117 49.155762 71.396484 48.062744 Q 70.547852 46.969727 70.547852 44.998535 Q 70.547852 43.032715 71.407227 41.934326 Q 72.266602 40.835938 73.797363 40.835938 Q 74.302246 40.835938 74.764160 40.978271 Q 75.226074 41.120605 75.655762 41.410645 L 75.655762 42.522461 Q 75.220703 42.108887 74.764160 41.912842 Q 74.307617 41.716797 73.797363 41.716797 Q 72.739258 41.716797 72.210205 42.535889 Q 71.681152 43.354980 71.681152 44.998535 Q 71.681152 46.668945 72.194092 47.471924 Q 72.707031 48.274902 73.770508 48.274902 Q 74.130371 48.274902 74.401611 48.191650 Q 74.672852 48.108398 74.893066 47.931152 L 74.893066 45.777344 L 73.727539 45.777344 L 73.727539 44.885742 L 75.929688 44.885742 Z " fill="rgb(0, 0, 0)" fill-opacity="1.000000" />
<path d="M 78.697266 43.005859 L 81.227051 43.005859 L 81.227051 48.231934 L 83.187500 48.231934 L 83.187500 49.000000 L 78.278320 49.000000 L 78.278320 48.231934 L 80.238770 48.231934 L 80.238770 43.773926 L 78.697266 43.773926 Z M 80.238770 40.669434 L 81.227051 40.669434 L 81.227051 41.915527 L 80.238770 41.915527 Z " fill="rgb(0, 0, 0)" fill-opacity="1.000000" />
<path d="M 87.297852 41.276367 L 87.297852 42.984375 L 89.542969 42.984375 L 89.542969 43.752441 L 87.297852 43.752441 L 87.297852 47.018066 Q 87.297852 47.684082 87.550293 47.947266 Q 87.802734 48.210449 88.431152 48.210449 L 89.542969 48.210449 L 89.542969 49.000000 L 88.334473 49.000000 Q 87.222656 49.000000 86.766113 48.554199 Q 86.309570 48.108398 86.309570 47.018066 L 86.309570 43.752441 L 84.703613 43.752441 L 84.703613 42.984375 L 86.309570 42.984375 L 86.309570 41.276367 Z " fill="rgb(0, 0, 0)" fill-opacity="1.000000" />
<path d="M 96.645020 45.272461 L 96.645020 49.000000 L 95.651367 49.000000 L 95.651367 45.272461 Q 95.651367 44.461426 95.366699 44.080078 Q 95.082031 43.698730 94.475098 43.698730 Q 93.782227 43.698730 93.408936 44.190186 Q 93.035645 44.681641 93.035645 45.600098 L 93.035645 49.000000 L 92.047363 49.000000 L 92.047363 40.642578 L 93.035645 40.642578 L 93.035645 43.886719 Q 93.298828 43.371094 93.750000 43.105225 Q 94.201172 42.839355 94.818848 42.839355 Q 95.737305 42.839355 96.191162 43.443604 Q 96.645020 44.047852 96.645020 45.272461 Z " fill="rgb(0, 0, 0)" fill-opacity="1.000000" />
<path d="M 99.047363 46.722656 L 99.047363 42.995117 L 100.035645 42.995117 L 100.035645 46.722656 Q 100.035645 47.533691 100.322998 47.915039 Q 100.610352 48.296387 101.211914 48.296387 Q 101.910156 48.296387 102.280762 47.804932 Q 102.651367 47.313477 102.651367 46.395020 L 102.651367 42.995117 L 103.645020 42.995117 L 103.645020 49.000000 L 102.651367 49.000000 L 102.651367 48.097656 Q 102.388184 48.618652 101.934326 48.887207 Q 101.480469 49.155762 100.873535 49.155762 Q 99.949707 49.155762 99.498535 48.551514 Q 99.047363 47.947266 99.047363 46.722656 Z " fill="rgb(0, 0, 0)" fill-opacity="1.000000" />
<path d="M 109.930664 45.997559 Q 109.930664 44.848145 109.565430 44.262695 Q 109.200195 43.677246 108.485840 43.677246 Q 107.766113 43.677246 107.395508 44.265381 Q 107.024902 44.853516 107.024902 45.997559 Q 107.024902 47.136230 107.395508 47.727051 Q 107.766113 48.317871 108.485840 48.317871 Q 109.200195 48.317871 109.565430 47.732422 Q 109.930664 47.146973 109.930664 45.997559 Z M 107.024902 43.752441 Q 107.261230 43.312012 107.677490 43.075684 Q 108.093750 42.839355 108.641602 42.839355 Q 109.726562 42.839355 110.349609 43.674561 Q 110.972656 44.509766 110.972656 45.976074 Q 110.972656 47.463867 110.346924 48.309814 Q 109.721191 49.155762 108.630859 49.155762 Q 108.093750 49.155762 107.682861 48.922119 Q 107.271973 48.688477 107.024902 48.242676 L 107.024902 49.000000 L 106.036621 49.000000 L 106.036621 40.642578 L 107.024902 40.642578 Z " fill="rgb(0, 0, 0)" fill-opacity="1.000000" />
<path d="M 113.869141 40.116211 L 114.728516 40.116211 Q 115.539551 41.383789 115.937012 42.597656 Q 116.334473 43.811523 116.334473 45.009277 Q 116.334473 46.217773 115.937012 47.431641 Q 115.539551 48.645508 114.728516 49.913086 L 113.869141 49.913086 Q 114.583496 48.666992 114.935303 47.447754 Q 115.287109 46.228516 115.287109 45.009277 Q 115.287109 43.784668 114.935303 42.565430 Q 114.583496 41.346191 113.869141 40.116211 Z " fill="rgb(0, 0, 0)" fill-opacity="1.000000" />
<path d="M 156.878906 52.319336 L 156.878906 38.300781 L 157.738281 38.300781 L 157.738281 52.319336 Z " fill="rgb(0, 0, 0)" fill-opacity="1.000000" />
<path d="M 219.878906 52.319336 L 219.878906 38.300781 L 220.738281 38.300781 L 220.738281 52.319336 Z " fill="rgb(0, 0, 0)" fill-opacity="1.000000" />
<path d="M 373.878906 52.319336 L 373.878906 38.300781 L 374.738281 38.300781 L 374.738281 52.319336 Z " fill="rgb(0, 0, 0)" fill-opacity="1.000000" />
<path d="M 436.878906 52.319336 L 436.878906 38.300781 L 437.738281 38.300781 L 437.738281 52.319336 Z " fill="rgb(0, 0, 0)" fill-opacity="1.000000" />
<path d="M 590.878906 52.319336 L 590.878906 38.300781 L 591.738281 38.300781 L 591.738281 52.319336 Z " fill="rgb(0, 0, 0)" fill-opacity="1.000000" />
<path d="M 156.878906 39.319336 L 156.878906 25.300781 L 157.738281 25.300781 L 157.738281 39.319336 Z " fill="rgb(0, 0, 0)" fill-opacity="1.000000" />
<path d="M 160.892578 33.335938 L 160.892578 32.412109 L 167.729980 32.412109 L 167.729980 33.335938 Z " fill="rgb(0, 0, 0)" fill-opacity="1.000000" />
<path d="M 167.892578 33.335938 L 167.892578 32.412109 L 174.729980 32.412109 L 174.729980 33.335938 Z " fill="rgb(0, 0, 0)" fill-opacity="1.000000" />
<path d="M 174.892578 33.335938 L 174.892578 32.412109 L 181.729980 32.412109 L 181.729980 33.335938 Z " fill="rgb(0, 0, 0)" fill-opacity="1.000000" />
<path d="M 181.892578 33.335938 L 181.892578 32.412109 L 188.729980 32.412109 L 188.729980 33.335938 Z " fill="rgb(0, 0, 0)" fill-opacity="1.000000" />
<path d="M 188.892578 33.335938 L 188.892578 32.412109 L 195.729980 32.412109 L 195.729980 33.335938 Z " fill="rgb(0, 0, 0)" fill-opacity="1.000000" />
<path d="M 195.892578 33.335938 L 195.892578 32.412109 L 202.729980 32.412109 L 202.729980 33.335938 Z " fill="rgb(0, 0, 0)" fill-opacity="1.000000" />
<path d="M 202.892578 33.335938 L 202.892578 32.412109 L 209.729980 32.412109 L 209.729980 33.335938 Z " fill="rgb(0, 0, 0)" fill-opacity="1.000000" />
<path d="M 210.032227 36.418945 L 210.032227 29.866211 L 216.590332 33.142578 Z " fill="rgb(0, 0, 0)" fill-opacity="1.000000" />
<path d="M 219.878906 39.319336 L 219.878906 25.300781 L 220.738281 25.300781 L 220.738281 39.319336 Z " fill="rgb(0, 0, 0)" fill-opacity="1.000000" />
<path d="M 247.341797 35.108398 Q 248.711426 35.108398 249.253906 34.434326 Q 249.796387 33.760254 249.796387 31.998535 Q 249.796387 30.220703 249.256592 29.546631 Q 248.716797 28.872559 247.341797 28.872559 L 246.826172 28.872559 L 246.826172 35.108398 Z M 247.363281 27.980957 Q 249.200195 27.980957 250.070312 28.958496 Q 250.940430 29.936035 250.940430 31.998535 Q 250.940430 34.050293 250.070312 35.025146 Q 249.200195 36.000000 247.363281 36.000000 L 245.735840 36.000000 L 245.735840 27.980957 Z " fill="rgb(0, 0, 0)" fill-opacity="1.000000" />
<path d="M 255.308594 30.677246 Q 254.556641 30.677246 254.169922 31.262695 Q 253.783203 31.848145 253.783203 32.997559 Q 253.783203 34.141602 254.169922 34.729736 Q 254.556641 35.317871 255.308594 35.317871 Q 256.065918 35.317871 256.452637 34.729736 Q 256.839355 34.141602 256.839355 32.997559 Q 256.839355 31.848145 256.452637 31.262695 Q 256.065918 30.677246 255.308594 30.677246 Z M 255.308594 29.839355 Q 256.560059 29.839355 257.223389 30.650391 Q 257.886719 31.461426 257.886719 32.997559 Q 257.886719 34.539062 257.226074 35.347412 Q 256.565430 36.155762 255.308594 36.155762 Q 254.057129 36.155762 253.396484 35.347412 Q 252.735840 34.539062 252.735840 32.997559 Q 252.735840 31.461426 253.396484 30.650391 Q 254.057129 29.839355 255.308594 29.839355 Z " fill="rgb(0, 0, 0)" fill-opacity="1.000000" />
<path d="M 264.698730 35.693848 Q 264.301270 35.924805 263.879639 36.040283 Q 263.458008 36.155762 263.017578 36.155762 Q 261.621094 36.155762 260.834229 35.317871 Q 260.047363 34.479980 260.047363 32.997559 Q 260.047363 31.515137 260.834229 30.677246 Q 261.621094 29.839355 263.017578 29.839355 Q 263.452637 29.839355 263.866211 29.952148 Q 264.279785 30.064941 264.698730 30.301270 L 264.698730 31.337891 Q 264.306641 30.988770 263.911865 30.833008 Q 263.517090 30.677246 263.017578 30.677246 Q 262.088379 30.677246 261.588867 31.278809 Q 261.089355 31.880371 261.089355 32.997559 Q 261.089355 34.109375 261.591553 34.713623 Q 262.093750 35.317871 263.017578 35.317871 Q 263.533203 35.317871 263.941406 35.159424 Q 264.349609 35.000977 264.698730 34.667969 Z " fill="rgb(0, 0, 0)" fill-opacity="1.000000" />
<path d="M 267.267578 27.642578 L 268.288086 27.642578 L 268.288086 32.481934 L 270.882324 29.984375 L 272.085449 29.984375 L 269.716797 32.250977 L 272.456055 36.000000 L 271.247559 36.000000 L 269.023926 32.895508 L 268.288086 33.588379 L 268.288086 36.000000 L 267.267578 36.000000 Z " fill="rgb(0, 0, 0)" fill-opacity="1.000000" />
<path d="M 279.015625 32.498047 L 279.015625 32.981445 L 274.734863 32.981445 L 274.734863 33.013672 Q 274.691895 34.243652 275.204834 34.780762 Q 275.717773 35.317871 276.652344 35.317871 Q 277.125000 35.317871 277.640625 35.167480 Q 278.156250 35.017090 278.741699 34.710938 L 278.741699 35.693848 Q 278.177734 35.924805 277.654053 36.040283 Q 277.130371 36.155762 276.641602 36.155762 Q 275.239746 36.155762 274.450195 35.315186 Q 273.660645 34.474609 273.660645 32.997559 Q 273.660645 31.558105 274.434082 30.698730 Q 275.207520 29.839355 276.496582 29.839355 Q 277.645996 29.839355 278.309326 30.618164 Q 278.972656 31.396973 279.015625 32.498047 Z M 278.027344 32.208008 Q 277.962891 31.584961 277.573486 31.131104 Q 277.184082 30.677246 276.453613 30.677246 Q 275.739258 30.677246 275.277344 31.149902 Q 274.815430 31.622559 274.772461 32.213379 Z " fill="rgb(0, 0, 0)" fill-opacity="1.000000" />
<path d="M 286.203613 31.225098 Q 285.886719 30.978027 285.559082 30.865234 Q 285.231445 30.752441 284.839355 30.752441 Q 283.915527 30.752441 283.426758 31.332520 Q 282.937988 31.912598 282.937988 33.008301 L 282.937988 36.000000 L 281.944336 36.000000 L 281.944336 29.984375 L 282.937988 29.984375 L 282.937988 31.160645 Q 283.185059 30.521484 283.697998 30.180420 Q 284.210938 29.839355 284.914551 29.839355 Q 285.279785 29.839355 285.596680 29.930664 Q 285.913574 30.021973 286.203613 30.215332 Z " fill="rgb(0, 0, 0)" fill-opacity="1.000000" />
<path d="M 292.645020 32.272461 L 292.645020 36.000000 L 291.651367 36.000000 L 291.651367 32.272461 Q 291.651367 31.461426 291.366699 31.080078 Q 291.082031 30.698730 290.475098 30.698730 Q 289.782227 30.698730 289.408936 31.190186 Q 289.035645 31.681641 289.035645 32.600098 L 289.035645 36.000000 L 288.047363 36.000000 L 288.047363 27.642578 L 289.035645 27.642578 L 289.035645 30.886719 Q 289.298828 30.371094 289.750000 30.105225 Q 290.201172 29.839355 290.818848 29.839355 Q 291.737305 29.839355 292.191162 30.443604 Q 292.645020 31.047852 292.645020 32.272461 Z " fill="rgb(0, 0, 0)" fill-opacity="1.000000" />
<path d="M 295.047363 33.722656 L 295.047363 29.995117 L 296.035645 29.995117 L 296.035645 33.722656 Q 296.035645 34.533691 296.322998 34.915039 Q 296.610352 35.296387 297.211914 35.296387 Q 297.910156 35.296387 298.280762 34.804932 Q 298.651367 34.313477 298.651367 33.395020 L 298.651367 29.995117 L 299.645020 29.995117 L 299.645020 36.000000 L 298.651367 36.000000 L 298.651367 35.097656 Q 298.388184 35.618652 297.934326 35.887207 Q 297.480469 36.155762 296.873535 36.155762 Q 295.949707 36.155762 295.498535 35.551514 Q 295.047363 34.947266 295.047363 33.722656 Z " fill="rgb(0, 0, 0)" fill-opacity="1.000000" />
<path d="M 305.930664 32.997559 Q 305.930664 31.848145 305.565430 31.262695 Q 305.200195 30.677246 304.485840 30.677246 Q 303.766113 30.677246 303.395508 31.265381 Q 303.024902 31.853516 303.024902 32.997559 Q 303.024902 34.136230 303.395508 34.727051 Q 303.766113 35.317871 304.485840 35.317871 Q 305.200195 35.317871 305.565430 34.732422 Q 305.930664 34.146973 305.930664 32.997559 Z M 303.024902 30.752441 Q 303.261230 30.312012 303.677490 30.075684 Q 304.093750 29.839355 304.641602 29.839355 Q 305.726562 29.839355 306.349609 30.674561 Q 306.972656 31.509766 306.972656 32.976074 Q 306.972656 34.463867 306.346924 35.309814 Q 305.721191 36.155762 304.630859 36.155762 Q 304.093750 36.155762 303.682861 35.922119 Q 303.271973 35.688477 303.024902 35.242676 L 303.024902 36.000000 L 302.036621 36.000000 L 302.036621 27.642578 L 303.024902 27.642578 Z " fill="rgb(0, 0, 0)" fill-opacity="1.000000" />
<path d="M 319.082031 32.213379 Q 319.500977 32.320801 319.796387 32.618896 Q 320.091797 32.916992 320.532227 33.808594 L 321.622559 36.000000 L 320.457031 36.000000 L 319.500977 33.975098 Q 319.087402 33.110352 318.757080 32.860596 Q 318.426758 32.610840 317.895020 32.610840 L 316.858398 32.610840 L 316.858398 36.000000 L 315.768066 36.000000 L 315.768066 27.980957 L 318.002441 27.980957 Q 319.323730 27.980957 320.027344 28.577148 Q 320.730957 29.173340 320.730957 30.301270 Q 320.730957 31.096191 320.298584 31.598389 Q 319.866211 32.100586 319.082031 32.213379 Z M 316.858398 28.872559 L 316.858398 31.719238 L 318.045410 31.719238 Q 318.824219 31.719238 319.205566 31.370117 Q 319.586914 31.020996 319.586914 30.301270 Q 319.586914 29.608398 319.181396 29.240479 Q 318.775879 28.872559 318.002441 28.872559 Z " fill="rgb(0, 0, 0)" fill-opacity="1.000000" />
<path d="M 328.015625 32.498047 L 328.015625 32.981445 L 323.734863 32.981445 L 323.734863 33.013672 Q 323.691895 34.243652 324.204834 34.780762 Q 324.717773 35.317871 325.652344 35.317871 Q 326.125000 35.317871 326.640625 35.167480 Q 327.156250 35.017090 327.741699 34.710938 L 327.741699 35.693848 Q 327.177734 35.924805 326.654053 36.040283 Q 326.130371 36.155762 325.641602 36.155762 Q 324.239746 36.155762 323.450195 35.315186 Q 322.660645 34.474609 322.660645 32.997559 Q 322.660645 31.558105 323.434082 30.698730 Q 324.207520 29.839355 325.496582 29.839355 Q 326.645996 29.839355 327.309326 30.618164 Q 327.972656 31.396973 328.015625 32.498047 Z M 327.027344 32.208008 Q 326.962891 31.584961 326.573486 31.131104 Q 326.184082 30.677246 325.453613 30.677246 Q 324.739258 30.677246 324.277344 31.149902 Q 323.815430 31.622559 323.772461 32.213379 Z " fill="rgb(0, 0, 0)" fill-opacity="1.000000" />
<path d="M 331.014160 35.242676 L 331.014160 38.288086 L 330.020508 38.288086 L 330.020508 29.984375 L 331.014160 29.984375 L 331.014160 30.752441 Q 331.261230 30.306641 331.672119 30.072998 Q 332.083008 29.839355 332.620117 29.839355 Q 333.710449 29.839355 334.330811 30.682617 Q 334.951172 31.525879 334.951172 33.019043 Q 334.951172 34.485352 334.328125 35.320557 Q 333.705078 36.155762 332.620117 36.155762 Q 332.072266 36.155762 331.661377 35.922119 Q 331.250488 35.688477 331.014160 35.242676 Z M 333.914551 32.997559 Q 333.914551 31.848145 333.552002 31.262695 Q 333.189453 30.677246 332.475098 30.677246 Q 331.755371 30.677246 331.384766 31.265381 Q 331.014160 31.853516 331.014160 32.997559 Q 331.014160 34.136230 331.384766 34.727051 Q 331.755371 35.317871 332.475098 35.317871 Q 333.189453 35.317871 333.552002 34.732422 Q 333.914551 34.146973 333.914551 32.997559 Z " fill="rgb(0, 0, 0)" fill-opacity="1.000000" />
<path d="M 339.308594 30.677246 Q 338.556641 30.677246 338.169922 31.262695 Q 337.783203 31.848145 337.783203 32.997559 Q 337.783203 34.141602 338.169922 34.729736 Q 338.556641 35.317871 339.308594 35.317871 Q 340.065918 35.317871 340.452637 34.729736 Q 340.839355 34.141602 340.839355 32.997559 Q 340.839355 31.848145 340.452637 31.262695 Q 340.065918 30.677246 339.308594 30.677246 Z M 339.308594 29.839355 Q 340.560059 29.839355 341.223389 30.650391 Q 341.886719 31.461426 341.886719 32.997559 Q 341.886719 34.539062 341.226074 35.347412 Q 340.565430 36.155762 339.308594 36.155762 Q 338.057129 36.155762 337.396484 35.347412 Q 336.735840 34.539062 336.735840 32.997559 Q 336.735840 31.461426 337.396484 30.650391 Q 338.057129 29.839355 339.308594 29.839355 Z " fill="rgb(0, 0, 0)" fill-opacity="1.000000" />
<path d="M 373.878906 39.319336 L 373.878906 25.300781 L 374.738281 25.300781 L 374.738281 39.319336 Z " fill="rgb(0, 0, 0)" fill-opacity="1.000000" />
<path d="M 378.032227 33.142578 L 384.590332 29.866211 L 384.590332 36.418945 Z " fill="rgb(0, 0, 0)" fill-opacity="1.000000" />
<path d="M 384.892578 33.335938 L 384.892578 32.412109 L 391.729980 32.412109 L 391.729980 33.335938 Z " fill="rgb(0, 0, 0)" fill-opacity="1.000000" />
<path d="M 391.892578 33.335938 L 391.892578 32.412109 L 398.729980 32.412109 L 398.729980 33.335938 Z " fill="rgb(0, 0, 0)" fill-opacity="1.000000" />
<path d="M 398.892578 33.335938 L 398.892578 32.412109 L 405.729980 32.412109 L 405.729980 33.335938 Z " fill="rgb(0, 0, 0)" fill-opacity="1.000000" />
<path d="M 405.892578 33.335938 L 405.892578 32.412109 L 412.729980 32.412109 L 412.729980 33.335938 Z " fill="rgb(0, 0, 0)" fill-opacity="1.000000" />
<path d="M 412.892578 33.335938 L 412.892578 32.412109 L 419.729980 32.412109 L 419.729980 33.335938 Z " fill="rgb(0, 0, 0)" fill-opacity="1.000000" />
<path d="M 419.892578 33.335938 L 419.892578 32.412109 L 426.729980 32.412109 L 426.729980 33.335938 Z " fill="rgb(0, 0, 0)" fill-opacity="1.000000" />
<path d="M 426.892578 33.335938 L 426.892578 32.412109 L 433.729980 32.412109 L 433.729980 33.335938 Z " fill="rgb(0, 0, 0)" fill-opacity="1.000000" />
<path d="M 436.878906 39.319336 L 436.878906 25.300781 L 437.738281 25.300781 L 437.738281 39.319336 Z " fill="rgb(0, 0, 0)" fill-opacity="1.000000" />
<path d="M 481.929688 35.339355 Q 481.494629 35.742188 480.949463 35.948975 Q 480.404297 36.155762 479.770508 36.155762 Q 478.245117 36.155762 477.396484 35.062744 Q 476.547852 33.969727 476.547852 31.998535 Q 476.547852 30.032715 477.407227 28.934326 Q 478.266602 27.835938 479.797363 27.835938 Q 480.302246 27.835938 480.764160 27.978271 Q 481.226074 28.120605 481.655762 28.410645 L 481.655762 29.522461 Q 481.220703 29.108887 480.764160 28.912842 Q 480.307617 28.716797 479.797363 28.716797 Q 478.739258 28.716797 478.210205 29.535889 Q 477.681152 30.354980 477.681152 31.998535 Q 477.681152 33.668945 478.194092 34.471924 Q 478.707031 35.274902 479.770508 35.274902 Q 480.130371 35.274902 480.401611 35.191650 Q 480.672852 35.108398 480.893066 34.931152 L 480.893066 32.777344 L 479.727539 32.777344 L 479.727539 31.885742 L 481.929688 31.885742 Z " fill="rgb(0, 0, 0)" fill-opacity="1.000000" />
<path d="M 489.203613 31.225098 Q 488.886719 30.978027 488.559082 30.865234 Q 488.231445 30.752441 487.839355 30.752441 Q 486.915527 30.752441 486.426758 31.332520 Q 485.937988 31.912598 485.937988 33.008301 L 485.937988 36.000000 L 484.944336 36.000000 L 484.944336 29.984375 L 485.937988 29.984375 L 485.937988 31.160645 Q 486.185059 30.521484 486.697998 30.180420 Q 487.210938 29.839355 487.914551 29.839355 Q 488.279785 29.839355 488.596680 29.930664 Q 488.913574 30.021973 489.203613 30.215332 Z " fill="rgb(0, 0, 0)" fill-opacity="1.000000" />
<path d="M 493.770508 32.976074 L 493.442871 32.976074 Q 492.578125 32.976074 492.140381 33.279541 Q 491.702637 33.583008 491.702637 34.184570 Q 491.702637 34.727051 492.030273 35.027832 Q 492.357910 35.328613 492.937988 35.328613 Q 493.754395 35.328613 494.221680 34.761963 Q 494.688965 34.195312 494.694336 33.196289 L 494.694336 32.976074 Z M 495.687988 32.567871 L 495.687988 36.000000 L 494.694336 36.000000 L 494.694336 35.108398 Q 494.377441 35.645508 493.896729 35.900635 Q 493.416016 36.155762 492.728516 36.155762 Q 491.810059 36.155762 491.262207 35.637451 Q 490.714355 35.119141 490.714355 34.249023 Q 490.714355 33.244629 491.388428 32.723633 Q 492.062500 32.202637 493.367676 32.202637 L 494.694336 32.202637 L 494.694336 32.046875 Q 494.688965 31.327148 494.329102 31.002197 Q 493.969238 30.677246 493.179688 30.677246 Q 492.674805 30.677246 492.159180 30.822266 Q 491.643555 30.967285 491.154785 31.246582 L 491.154785 30.258301 Q 491.702637 30.048828 492.204834 29.944092 Q 492.707031 29.839355 493.179688 29.839355 Q 493.926270 29.839355 494.455322 30.059570 Q 494.984375 30.279785 495.312012 30.720215 Q 495.516113 30.988770 495.602051 31.383545 Q 495.687988 31.778320 495.687988 32.567871 Z " fill="rgb(0, 0, 0)" fill-opacity="1.000000" />
<path d="M 501.608398 30.752441 L 501.608398 27.642578 L 502.596680 27.642578 L 502.596680 36.000000 L 501.608398 36.000000 L 501.608398 35.242676 Q 501.361328 35.688477 500.950439 35.922119 Q 500.539551 36.155762 500.002441 36.155762 Q 498.912109 36.155762 498.286377 35.309814 Q 497.660645 34.463867 497.660645 32.976074 Q 497.660645 31.509766 498.289062 30.674561 Q 498.917480 29.839355 500.002441 29.839355 Q 500.544922 29.839355 500.958496 30.072998 Q 501.372070 30.306641 501.608398 30.752441 Z M 498.702637 32.997559 Q 498.702637 34.146973 499.067871 34.732422 Q 499.433105 35.317871 500.147461 35.317871 Q 500.861816 35.317871 501.235107 34.727051 Q 501.608398 34.136230 501.608398 32.997559 Q 501.608398 31.853516 501.235107 31.265381 Q 500.861816 30.677246 500.147461 30.677246 Q 499.433105 30.677246 499.067871 31.262695 Q 498.702637 31.848145 498.702637 32.997559 Z " fill="rgb(0, 0, 0)" fill-opacity="1.000000" />
<path d="M 510.015625 32.498047 L 510.015625 32.981445 L 505.734863 32.981445 L 505.734863 33.013672 Q 505.691895 34.243652 506.204834 34.780762 Q 506.717773 35.317871 507.652344 35.317871 Q 508.125000 35.317871 508.640625 35.167480 Q 509.156250 35.017090 509.741699 34.710938 L 509.741699 35.693848 Q 509.177734 35.924805 508.654053 36.040283 Q 508.130371 36.155762 507.641602 36.155762 Q 506.239746 36.155762 505.450195 35.315186 Q 504.660645 34.474609 504.660645 32.997559 Q 504.660645 31.558105 505.434082 30.698730 Q 506.207520 29.839355 507.496582 29.839355 Q 508.645996 29.839355 509.309326 30.618164 Q 509.972656 31.396973 510.015625 32.498047 Z M 509.027344 32.208008 Q 508.962891 31.584961 508.573486 31.131104 Q 508.184082 30.677246 507.453613 30.677246 Q 506.739258 30.677246 506.277344 31.149902 Q 505.815430 31.622559 505.772461 32.213379 Z " fill="rgb(0, 0, 0)" fill-opacity="1.000000" />
<path d="M 516.226074 30.193848 L 516.226074 31.160645 Q 515.801758 30.913574 515.372070 30.790039 Q 514.942383 30.666504 514.496582 30.666504 Q 513.825195 30.666504 513.494873 30.884033 Q 513.164551 31.101562 513.164551 31.547363 Q 513.164551 31.950195 513.411621 32.148926 Q 513.658691 32.347656 514.641602 32.535645 L 515.039062 32.610840 Q 515.774902 32.750488 516.153564 33.169434 Q 516.532227 33.588379 516.532227 34.259766 Q 516.532227 35.151367 515.898438 35.653564 Q 515.264648 36.155762 514.136719 36.155762 Q 513.690918 36.155762 513.202148 36.061768 Q 512.713379 35.967773 512.144043 35.779785 L 512.144043 34.759277 Q 512.697266 35.043945 513.202148 35.186279 Q 513.707031 35.328613 514.158203 35.328613 Q 514.813477 35.328613 515.173340 35.062744 Q 515.533203 34.796875 515.533203 34.318848 Q 515.533203 33.631348 514.217285 33.368164 L 514.174316 33.357422 L 513.803711 33.282227 Q 512.949707 33.115723 512.557617 32.720947 Q 512.165527 32.326172 512.165527 31.644043 Q 512.165527 30.779297 512.750977 30.309326 Q 513.336426 29.839355 514.421387 29.839355 Q 514.904785 29.839355 515.350586 29.927979 Q 515.796387 30.016602 516.226074 30.193848 Z " fill="rgb(0, 0, 0)" fill-opacity="1.000000" />
<path d="M 523.698730 35.693848 Q 523.301270 35.924805 522.879639 36.040283 Q 522.458008 36.155762 522.017578 36.155762 Q 520.621094 36.155762 519.834229 35.317871 Q 519.047363 34.479980 519.047363 32.997559 Q 519.047363 31.515137 519.834229 30.677246 Q 520.621094 29.839355 522.017578 29.839355 Q 522.452637 29.839355 522.866211 29.952148 Q 523.279785 30.064941 523.698730 30.301270 L 523.698730 31.337891 Q 523.306641 30.988770 522.911865 30.833008 Q 522.517090 30.677246 522.017578 30.677246 Q 521.088379 30.677246 520.588867 31.278809 Q 520.089355 31.880371 520.089355 32.997559 Q 520.089355 34.109375 520.591553 34.713623 Q 521.093750 35.317871 522.017578 35.317871 Q 522.533203 35.317871 522.941406 35.159424 Q 523.349609 35.000977 523.698730 34.667969 Z " fill="rgb(0, 0, 0)" fill-opacity="1.000000" />
<path d="M 528.308594 30.677246 Q 527.556641 30.677246 527.169922 31.262695 Q 526.783203 31.848145 526.783203 32.997559 Q 526.783203 34.141602 527.169922 34.729736 Q 527.556641 35.317871 528.308594 35.317871 Q 529.065918 35.317871 529.452637 34.729736 Q 529.839355 34.141602 529.839355 32.997559 Q 529.839355 31.848145 529.452637 31.262695 Q 529.065918 30.677246 528.308594 30.677246 Z M 528.308594 29.839355 Q 529.560059 29.839355 530.223389 30.650391 Q 530.886719 31.461426 530.886719 32.997559 Q 530.886719 34.539062 530.226074 35.347412 Q 529.565430 36.155762 528.308594 36.155762 Q 527.057129 36.155762 526.396484 35.347412 Q 525.735840 34.539062 525.735840 32.997559 Q 525.735840 31.461426 526.396484 30.650391 Q 527.057129 29.839355 528.308594 29.839355 Z " fill="rgb(0, 0, 0)" fill-opacity="1.000000" />
<path d="M 534.014160 35.242676 L 534.014160 38.288086 L 533.020508 38.288086 L 533.020508 29.984375 L 534.014160 29.984375 L 534.014160 30.752441 Q 534.261230 30.306641 534.672119 30.072998 Q 535.083008 29.839355 535.620117 29.839355 Q 536.710449 29.839355 537.330811 30.682617 Q 537.951172 31.525879 537.951172 33.019043 Q 537.951172 34.485352 537.328125 35.320557 Q 536.705078 36.155762 535.620117 36.155762 Q 535.072266 36.155762 534.661377 35.922119 Q 534.250488 35.688477 534.014160 35.242676 Z M 536.914551 32.997559 Q 536.914551 31.848145 536.552002 31.262695 Q 536.189453 30.677246 535.475098 30.677246 Q 534.755371 30.677246 534.384766 31.265381 Q 534.014160 31.853516 534.014160 32.997559 Q 534.014160 34.136230 534.384766 34.727051 Q 534.755371 35.317871 535.475098 35.317871 Q 536.189453 35.317871 536.552002 34.732422 Q 536.914551 34.146973 536.914551 32.997559 Z " fill="rgb(0, 0, 0)" fill-opacity="1.000000" />
<path d="M 545.015625 32.498047 L 545.015625 32.981445 L 540.734863 32.981445 L 540.734863 33.013672 Q 540.691895 34.243652 541.204834 34.780762 Q 541.717773 35.317871 542.652344 35.317871 Q 543.125000 35.317871 543.640625 35.167480 Q 544.156250 35.017090 544.741699 34.710938 L 544.741699 35.693848 Q 544.177734 35.924805 543.654053 36.040283 Q 543.130371 36.155762 542.641602 36.155762 Q 541.239746 36.155762 540.450195 35.315186 Q 539.660645 34.474609 539.660645 32.997559 Q 539.660645 31.558105 540.434082 30.698730 Q 541.207520 29.839355 542.496582 29.839355 Q 543.645996 29.839355 544.309326 30.618164 Q 544.972656 31.396973 545.015625 32.498047 Z M 544.027344 32.208008 Q 543.962891 31.584961 543.573486 31.131104 Q 543.184082 30.677246 542.453613 30.677246 Q 541.739258 30.677246 541.277344 31.149902 Q 540.815430 31.622559 540.772461 32.213379 Z " fill="rgb(0, 0, 0)" fill-opacity="1.000000" />
<path d="M 590.878906 39.319336 L 590.878906 25.300781 L 591.738281 25.300781 L 591.738281 39.319336 Z " fill="rgb(0, 0, 0)" fill-opacity="1.000000" />
<path d="M 38.308594 17.677246 Q 37.556641 17.677246 37.169922 18.262695 Q 36.783203 18.848145 36.783203 19.997559 Q 36.783203 21.141602 37.169922 21.729736 Q 37.556641 22.317871 38.308594 22.317871 Q 39.065918 22.317871 39.452637 21.729736 Q 39.839355 21.141602 39.839355 19.997559 Q 39.839355 18.848145 39.452637 18.262695 Q 39.065918 17.677246 38.308594 17.677246 Z M 38.308594 16.839355 Q 39.560059 16.839355 40.223389 17.650391 Q 40.886719 18.461426 40.886719 19.997559 Q 40.886719 21.539062 40.226074 22.347412 Q 39.565430 23.155762 38.308594 23.155762 Q 37.057129 23.155762 36.396484 22.347412 Q 35.735840 21.539062 35.735840 19.997559 Q 35.735840 18.461426 36.396484 17.650391 Q 37.057129 16.839355 38.308594 16.839355 Z " fill="rgb(0, 0, 0)" fill-opacity="1.000000" />
<path d="M 43.047363 20.722656 L 43.047363 16.995117 L 44.035645 16.995117 L 44.035645 20.722656 Q 44.035645 21.533691 44.322998 21.915039 Q 44.610352 22.296387 45.211914 22.296387 Q 45.910156 22.296387 46.280762 21.804932 Q 46.651367 21.313477 46.651367 20.395020 L 46.651367 16.995117 L 47.645020 16.995117 L 47.645020 23.000000 L 46.651367 23.000000 L 46.651367 22.097656 Q 46.388184 22.618652 45.934326 22.887207 Q 45.480469 23.155762 44.873535 23.155762 Q 43.949707 23.155762 43.498535 22.551514 Q 43.047363 21.947266 43.047363 20.722656 Z " fill="rgb(0, 0, 0)" fill-opacity="1.000000" />
<path d="M 55.203613 18.225098 Q 54.886719 17.978027 54.559082 17.865234 Q 54.231445 17.752441 53.839355 17.752441 Q 52.915527 17.752441 52.426758 18.332520 Q 51.937988 18.912598 51.937988 20.008301 L 51.937988 23.000000 L 50.944336 23.000000 L 50.944336 16.984375 L 51.937988 16.984375 L 51.937988 18.160645 Q 52.185059 17.521484 52.697998 17.180420 Q 53.210938 16.839355 53.914551 16.839355 Q 54.279785 16.839355 54.596680 16.930664 Q 54.913574 17.021973 55.203613 17.215332 Z " fill="rgb(0, 0, 0)" fill-opacity="1.000000" />
<path d="M 68.763184 22.715332 Q 68.349609 22.935547 67.914551 23.045654 Q 67.479492 23.155762 66.990723 23.155762 Q 65.449219 23.155762 64.597900 22.065430 Q 63.746582 20.975098 63.746582 18.998535 Q 63.746582 17.032715 64.603271 15.934326 Q 65.459961 14.835938 66.990723 14.835938 Q 67.479492 14.835938 67.914551 14.946045 Q 68.349609 15.056152 68.763184 15.276367 L 68.763184 16.388184 Q 68.365723 16.060547 67.909180 15.888672 Q 67.452637 15.716797 66.990723 15.716797 Q 65.932617 15.716797 65.406250 16.533203 Q 64.879883 17.349609 64.879883 18.998535 Q 64.879883 20.642090 65.406250 21.458496 Q 65.932617 22.274902 66.990723 22.274902 Q 67.463379 22.274902 67.917236 22.103027 Q 68.371094 21.931152 68.763184 21.603516 Z " fill="rgb(0, 0, 0)" fill-opacity="1.000000" />
<path d="M 73.308594 17.677246 Q 72.556641 17.677246 72.169922 18.262695 Q 71.783203 18.848145 71.783203 19.997559 Q 71.783203 21.141602 72.169922 21.729736 Q 72.556641 22.317871 73.308594 22.317871 Q 74.065918 22.317871 74.452637 21.729736 Q 74.839355 21.141602 74.839355 19.997559 Q 74.839355 18.848145 74.452637 18.262695 Q 74.065918 17.677246 73.308594 17.677246 Z M 73.308594 16.839355 Q 74.560059 16.839355 75.223389 17.650391 Q 75.886719 18.461426 75.886719 19.997559 Q 75.886719 21.539062 75.226074 22.347412 Q 74.565430 23.155762 73.308594 23.155762 Q 72.057129 23.155762 71.396484 22.347412 Q 70.735840 21.539062 70.735840 19.997559 Q 70.735840 18.461426 71.396484 17.650391 Q 72.057129 16.839355 73.308594 16.839355 Z " fill="rgb(0, 0, 0)" fill-opacity="1.000000" />
<path d="M 81.608398 17.752441 L 81.608398 14.642578 L 82.596680 14.642578 L 82.596680 23.000000 L 81.608398 23.000000 L 81.608398 22.242676 Q 81.361328 22.688477 80.950439 22.922119 Q 80.539551 23.155762 80.002441 23.155762 Q 78.912109 23.155762 78.286377 22.309814 Q 77.660645 21.463867 77.660645 19.976074 Q 77.660645 18.509766 78.289062 17.674561 Q 78.917480 16.839355 80.002441 16.839355 Q 80.544922 16.839355 80.958496 17.072998 Q 81.372070 17.306641 81.608398 17.752441 Z M 78.702637 19.997559 Q 78.702637 21.146973 79.067871 21.732422 Q 79.433105 22.317871 80.147461 22.317871 Q 80.861816 22.317871 81.235107 21.727051 Q 81.608398 21.136230 81.608398 19.997559 Q 81.608398 18.853516 81.235107 18.265381 Q 80.861816 17.677246 80.147461 17.677246 Q 79.433105 17.677246 79.067871 18.262695 Q 78.702637 18.848145 78.702637 19.997559 Z " fill="rgb(0, 0, 0)" fill-opacity="1.000000" />
<path d="M 90.015625 19.498047 L 90.015625 19.981445 L 85.734863 19.981445 L 85.734863 20.013672 Q 85.691895 21.243652 86.204834 21.780762 Q 86.717773 22.317871 87.652344 22.317871 Q 88.125000 22.317871 88.640625 22.167480 Q 89.156250 22.017090 89.741699 21.710938 L 89.741699 22.693848 Q 89.177734 22.924805 88.654053 23.040283 Q 88.130371 23.155762 87.641602 23.155762 Q 86.239746 23.155762 85.450195 22.315186 Q 84.660645 21.474609 84.660645 19.997559 Q 84.660645 18.558105 85.434082 17.698730 Q 86.207520 16.839355 87.496582 16.839355 Q 88.645996 16.839355 89.309326 17.618164 Q 89.972656 18.396973 90.015625 19.498047 Z M 89.027344 19.208008 Q 88.962891 18.584961 88.573486 18.131104 Q 88.184082 17.677246 87.453613 17.677246 Q 86.739258 17.677246 86.277344 18.149902 Q 85.815430 18.622559 85.772461 19.213379 Z " fill="rgb(0, 0, 0)" fill-opacity="1.000000" />
<path d="M 102.082031 19.213379 Q 102.500977 19.320801 102.796387 19.618896 Q 103.091797 19.916992 103.532227 20.808594 L 104.622559 23.000000 L 103.457031 23.000000 L 102.500977 20.975098 Q 102.087402 20.110352 101.757080 19.860596 Q 101.426758 19.610840 100.895020 19.610840 L 99.858398 19.610840 L 99.858398 23.000000 L 98.768066 23.000000 L 98.768066 14.980957 L 101.002441 14.980957 Q 102.323730 14.980957 103.027344 15.577148 Q 103.730957 16.173340 103.730957 17.301270 Q 103.730957 18.096191 103.298584 18.598389 Q 102.866211 19.100586 102.082031 19.213379 Z M 99.858398 15.872559 L 99.858398 18.719238 L 101.045410 18.719238 Q 101.824219 18.719238 102.205566 18.370117 Q 102.586914 18.020996 102.586914 17.301270 Q 102.586914 16.608398 102.181396 16.240479 Q 101.775879 15.872559 101.002441 15.872559 Z " fill="rgb(0, 0, 0)" fill-opacity="1.000000" />
<path d="M 111.015625 19.498047 L 111.015625 19.981445 L 106.734863 19.981445 L 106.734863 20.013672 Q 106.691895 21.243652 107.204834 21.780762 Q 107.717773 22.317871 108.652344 22.317871 Q 109.125000 22.317871 109.640625 22.167480 Q 110.156250 22.017090 110.741699 21.710938 L 110.741699 22.693848 Q 110.177734 22.924805 109.654053 23.040283 Q 109.130371 23.155762 108.641602 23.155762 Q 107.239746 23.155762 106.450195 22.315186 Q 105.660645 21.474609 105.660645 19.997559 Q 105.660645 18.558105 106.434082 17.698730 Q 107.207520 16.839355 108.496582 16.839355 Q 109.645996 16.839355 110.309326 17.618164 Q 110.972656 18.396973 111.015625 19.498047 Z M 110.027344 19.208008 Q 109.962891 18.584961 109.573486 18.131104 Q 109.184082 17.677246 108.453613 17.677246 Q 107.739258 17.677246 107.277344 18.149902 Q 106.815430 18.622559 106.772461 19.213379 Z " fill="rgb(0, 0, 0)" fill-opacity="1.000000" />
<path d="M 114.014160 22.242676 L 114.014160 25.288086 L 113.020508 25.288086 L 113.020508 16.984375 L 114.014160 16.984375 L 114.014160 17.752441 Q 114.261230 17.306641 114.672119 17.072998 Q 115.083008 16.839355 115.620117 16.839355 Q 116.710449 16.839355 117.330811 17.682617 Q 117.951172 18.525879 117.951172 20.019043 Q 117.951172 21.485352 117.328125 22.320557 Q 116.705078 23.155762 115.620117 23.155762 Q 115.072266 23.155762 114.661377 22.922119 Q 114.250488 22.688477 114.014160 22.242676 Z M 116.914551 19.997559 Q 116.914551 18.848145 116.552002 18.262695 Q 116.189453 17.677246 115.475098 17.677246 Q 114.755371 17.677246 114.384766 18.265381 Q 114.014160 18.853516 114.014160 19.997559 Q 114.014160 21.136230 114.384766 21.727051 Q 114.755371 22.317871 115.475098 22.317871 Q 116.189453 22.317871 116.552002 21.732422 Q 116.914551 21.146973 116.914551 19.997559 Z " fill="rgb(0, 0, 0)" fill-opacity="1.000000" />
<path d="M 122.308594 17.677246 Q 121.556641 17.677246 121.169922 18.262695 Q 120.783203 18.848145 120.783203 19.997559 Q 120.783203 21.141602 121.169922 21.729736 Q 121.556641 22.317871 122.308594 22.317871 Q 123.065918 22.317871 123.452637 21.729736 Q 123.839355 21.141602 123.839355 19.997559 Q 123.839355 18.848145 123.452637 18.262695 Q 123.065918 17.677246 122.308594 17.677246 Z M 122.308594 16.839355 Q 123.560059 16.839355 124.223389 17.650391 Q 124.886719 18.461426 124.886719 19.997559 Q 124.886719 21.539062 124.226074 22.347412 Q 123.565430 23.155762 122.308594 23.155762 Q 121.057129 23.155762 120.396484 22.347412 Q 119.735840 21.539062 119.735840 19.997559 Q 119.735840 18.461426 120.396484 17.650391 Q 121.057129 16.839355 122.308594 16.839355 Z " fill="rgb(0, 0, 0)" fill-opacity="1.000000" />
<path d="M 156.878906 26.319336 L 156.878906 12.300781 L 157.738281 12.300781 L 157.738281 26.319336 Z " fill="rgb(0, 0, 0)" fill-opacity="1.000000" />
<path d="M 177.143066 15.872559 L 177.143066 18.885742 L 178.399902 18.885742 Q 179.151855 18.885742 179.573486 18.488281 Q 179.995117 18.090820 179.995117 17.376465 Q 179.995117 16.662109 179.576172 16.267334 Q 179.157227 15.872559 178.399902 15.872559 Z M 176.058105 14.980957 L 178.399902 14.980957 Q 179.742676 14.980957 180.435547 15.590576 Q 181.128418 16.200195 181.128418 17.376465 Q 181.128418 18.563477 180.438232 19.170410 Q 179.748047 19.777344 178.399902 19.777344 L 177.143066 19.777344 L 177.143066 23.000000 L 176.058105 23.000000 Z " fill="rgb(0, 0, 0)" fill-opacity="1.000000" />
<path d="M 183.047363 20.722656 L 183.047363 16.995117 L 184.035645 16.995117 L 184.035645 20.722656 Q 184.035645 21.533691 184.322998 21.915039 Q 184.610352 22.296387 185.211914 22.296387 Q 185.910156 22.296387 186.280762 21.804932 Q 186.651367 21.313477 186.651367 20.395020 L 186.651367 16.995117 L 187.645020 16.995117 L 187.645020 23.000000 L 186.651367 23.000000 L 186.651367 22.097656 Q 186.388184 22.618652 185.934326 22.887207 Q 185.480469 23.155762 184.873535 23.155762 Q 183.949707 23.155762 183.498535 22.551514 Q 183.047363 21.947266 183.047363 20.722656 Z " fill="rgb(0, 0, 0)" fill-opacity="1.000000" />
<path d="M 194.226074 17.193848 L 194.226074 18.160645 Q 193.801758 17.913574 193.372070 17.790039 Q 192.942383 17.666504 192.496582 17.666504 Q 191.825195 17.666504 191.494873 17.884033 Q 191.164551 18.101562 191.164551 18.547363 Q 191.164551 18.950195 191.411621 19.148926 Q 191.658691 19.347656 192.641602 19.535645 L 193.039062 19.610840 Q 193.774902 19.750488 194.153564 20.169434 Q 194.532227 20.588379 194.532227 21.259766 Q 194.532227 22.151367 193.898438 22.653564 Q 193.264648 23.155762 192.136719 23.155762 Q 191.690918 23.155762 191.202148 23.061768 Q 190.713379 22.967773 190.144043 22.779785 L 190.144043 21.759277 Q 190.697266 22.043945 191.202148 22.186279 Q 191.707031 22.328613 192.158203 22.328613 Q 192.813477 22.328613 193.173340 22.062744 Q 193.533203 21.796875 193.533203 21.318848 Q 193.533203 20.631348 192.217285 20.368164 L 192.174316 20.357422 L 191.803711 20.282227 Q 190.949707 20.115723 190.557617 19.720947 Q 190.165527 19.326172 190.165527 18.644043 Q 190.165527 17.779297 190.750977 17.309326 Q 191.336426 16.839355 192.421387 16.839355 Q 192.904785 16.839355 193.350586 16.927979 Q 193.796387 17.016602 194.226074 17.193848 Z " fill="rgb(0, 0, 0)" fill-opacity="1.000000" />
<path d="M 201.645020 19.272461 L 201.645020 23.000000 L 200.651367 23.000000 L 200.651367 19.272461 Q 200.651367 18.461426 200.366699 18.080078 Q 200.082031 17.698730 199.475098 17.698730 Q 198.782227 17.698730 198.408936 18.190186 Q 198.035645 18.681641 198.035645 19.600098 L 198.035645 23.000000 L 197.047363 23.000000 L 197.047363 14.642578 L 198.035645 14.642578 L 198.035645 17.886719 Q 198.298828 17.371094 198.750000 17.105225 Q 199.201172 16.839355 199.818848 16.839355 Q 200.737305 16.839355 201.191162 17.443604 Q 201.645020 18.047852 201.645020 19.272461 Z " fill="rgb(0, 0, 0)" fill-opacity="1.000000" />
<path d="M 219.878906 26.319336 L 219.878906 12.300781 L 220.738281 12.300781 L 220.738281 26.319336 Z " fill="rgb(0, 0, 0)" fill-opacity="1.000000" />
<path d="M 373.878906 26.319336 L 373.878906 12.300781 L 374.738281 12.300781 L 374.738281 26.319336 Z " fill="rgb(0, 0, 0)" fill-opacity="1.000000" />
<path d="M 394.143066 15.872559 L 394.143066 18.885742 L 395.399902 18.885742 Q 396.151855 18.885742 396.573486 18.488281 Q 396.995117 18.090820 396.995117 17.376465 Q 396.995117 16.662109 396.576172 16.267334 Q 396.157227 15.872559 395.399902 15.872559 Z M 393.058105 14.980957 L 395.399902 14.980957 Q 396.742676 14.980957 397.435547 15.590576 Q 398.128418 16.200195 398.128418 17.376465 Q 398.128418 18.563477 397.438232 19.170410 Q 396.748047 19.777344 395.399902 19.777344 L 394.143066 19.777344 L 394.143066 23.000000 L 393.058105 23.000000 Z " fill="rgb(0, 0, 0)" fill-opacity="1.000000" />
<path d="M 400.047363 20.722656 L 400.047363 16.995117 L 401.035645 16.995117 L 401.035645 20.722656 Q 401.035645 21.533691 401.322998 21.915039 Q 401.610352 22.296387 402.211914 22.296387 Q 402.910156 22.296387 403.280762 21.804932 Q 403.651367 21.313477 403.651367 20.395020 L 403.651367 16.995117 L 404.645020 16.995117 L 404.645020 23.000000 L 403.651367 23.000000 L 403.651367 22.097656 Q 403.388184 22.618652 402.934326 22.887207 Q 402.480469 23.155762 401.873535 23.155762 Q 400.949707 23.155762 400.498535 22.551514 Q 400.047363 21.947266 400.047363 20.722656 Z " fill="rgb(0, 0, 0)" fill-opacity="1.000000" />
<path d="M 409.861816 20.824707 Q 409.861816 21.490723 410.106201 21.829102 Q 410.350586 22.167480 410.828613 22.167480 L 411.983398 22.167480 L 411.983398 23.000000 L 410.731934 23.000000 Q 409.845703 23.000000 409.359619 22.433350 Q 408.873535 21.866699 408.873535 20.824707 L 408.873535 15.383789 L 407.289062 15.383789 L 407.289062 14.610352 L 409.861816 14.610352 Z " fill="rgb(0, 0, 0)" fill-opacity="1.000000" />
<path d="M 416.861816 20.824707 Q 416.861816 21.490723 417.106201 21.829102 Q 417.350586 22.167480 417.828613 22.167480 L 418.983398 22.167480 L 418.983398 23.000000 L 417.731934 23.000000 Q 416.845703 23.000000 416.359619 22.433350 Q 415.873535 21.866699 415.873535 20.824707 L 415.873535 15.383789 L 414.289062 15.383789 L 414.289062 14.610352 L 416.861816 14.610352 Z " fill="rgb(0, 0, 0)" fill-opacity="1.000000" />
<path d="M 436.878906 26.319336 L 436.878906 12.300781 L 437.738281 12.300781 L 437.738281 26.319336 Z " fill="rgb(0, 0, 0)" fill-opacity="1.000000" />
<path d="M 590.878906 26.319336 L 590.878906 12.300781 L 591.738281 12.300781 L 591.738281 26.319336 Z " fill="rgb(0, 0, 0)" fill-opacity="1.000000" />
<path d="M 6.892578 7.335938 L 6.892578 6.412109 L 13.729980 6.412109 L 13.729980 7.335938 Z " fill="rgb(0, 0, 0)" fill-opacity="1.000000" />
<path d="M 13.892578 7.335938 L 13.892578 6.412109 L 20.729980 6.412109 L 20.729980 7.335938 Z " fill="rgb(0, 0, 0)" fill-opacity="1.000000" />
<path d="M 20.892578 7.335938 L 20.892578 6.412109 L 27.729980 6.412109 L 27.729980 7.335938 Z " fill="rgb(0, 0, 0)" fill-opacity="1.000000" />
<path d="M 27.892578 7.335938 L 27.892578 6.412109 L 34.729980 6.412109 L 34.729980 7.335938 Z " fill="rgb(0, 0, 0)" fill-opacity="1.000000" />
<path d="M 34.892578 7.335938 L 34.892578 6.412109 L 41.729980 6.412109 L 41.729980 7.335938 Z " fill="rgb(0, 0, 0)" fill-opacity="1.000000" />
<path d="M 41.892578 7.335938 L 41.892578 6.412109 L 48.729980 6.412109 L 48.729980 7.335938 Z " fill="rgb(0, 0, 0)" fill-opacity="1.000000" />
<path d="M 48.892578 7.335938 L 48.892578 6.412109 L 55.729980 6.412109 L 55.729980 7.335938 Z " fill="rgb(0, 0, 0)" fill-opacity="1.000000" />
<path d="M 55.892578 7.335938 L 55.892578 6.412109 L 62.729980 6.412109 L 62.729980 7.335938 Z " fill="rgb(0, 0, 0)" fill-opacity="1.000000" />
<path d="M 62.892578 7.335938 L 62.892578 6.412109 L 69.729980 6.412109 L 69.729980 7.335938 Z " fill="rgb(0, 0, 0)" fill-opacity="1.000000" />
<path d="M 69.892578 7.335938 L 69.892578 6.412109 L 76.729980 6.412109 L 76.729980 7.335938 Z " fill="rgb(0, 0, 0)" fill-opacity="1.000000" />
<path d="M 76.892578 7.335938 L 76.892578 6.412109 L 83.729980 6.412109 L 83.729980 7.335938 Z " fill="rgb(0, 0, 0)" fill-opacity="1.000000" />
<path d="M 83.892578 7.335938 L 83.892578 6.412109 L 90.729980 6.412109 L 90.729980 7.335938 Z " fill="rgb(0, 0, 0)" fill-opacity="1.000000" />
<path d="M 90.892578 7.335938 L 90.892578 6.412109 L 97.729980 6.412109 L 97.729980 7.335938 Z " fill="rgb(0, 0, 0)" fill-opacity="1.000000" />
<path d="M 97.892578 7.335938 L 97.892578 6.412109 L 104.729980 6.412109 L 104.729980 7.335938 Z " fill="rgb(0, 0, 0)" fill-opacity="1.000000" />
<path d="M 104.892578 7.335938 L 104.892578 6.412109 L 111.729980 6.412109 L 111.729980 7.335938 Z " fill="rgb(0, 0, 0)" fill-opacity="1.000000" />
<path d="M 111.892578 7.335938 L 111.892578 6.412109 L 118.729980 6.412109 L 118.729980 7.335938 Z " fill="rgb(0, 0, 0)" fill-opacity="1.000000" />
<path d="M 118.892578 7.335938 L 118.892578 6.412109 L 125.729980 6.412109 L 125.729980 7.335938 Z " fill="rgb(0, 0, 0)" fill-opacity="1.000000" />
<path d="M 125.892578 7.335938 L 125.892578 6.412109 L 132.729980 6.412109 L 132.729980 7.335938 Z " fill="rgb(0, 0, 0)" fill-opacity="1.000000" />
<path d="M 132.892578 7.335938 L 132.892578 6.412109 L 139.729980 6.412109 L 139.729980 7.335938 Z " fill="rgb(0, 0, 0)" fill-opacity="1.000000" />
<path d="M 139.892578 7.335938 L 139.892578 6.412109 L 146.729980 6.412109 L 146.729980 7.335938 Z " fill="rgb(0, 0, 0)" fill-opacity="1.000000" />
<path d="M 146.892578 7.335938 L 146.892578 6.412109 L 153.729980 6.412109 L 153.729980 7.335938 Z " fill="rgb(0, 0, 0)" fill-opacity="1.000000" />
<path d="M 156.878906 13.319336 L 156.878906 7.335938 L 153.892578 7.335938 L 153.892578 6.412109 L 157.738281 6.412109 L 157.738281 13.319336 Z " fill="rgb(0, 0, 0)" fill-opacity="1.000000" />
<path d="M 219.878906 13.319336 L 219.878906 6.412109 L 223.729980 6.412109 L 223.729980 7.335938 L 220.738281 7.335938 L 220.738281 13.319336 Z " fill="rgb(0, 0, 0)" fill-opacity="1.000000" />
<path d="M 223.892578 7.335938 L 223.892578 6.412109 L 230.729980 6.412109 L 230.729980 7.335938 Z " fill="rgb(0, 0, 0)" fill-opacity="1.000000" />
<path d="M 230.892578 7.335938 L 230.892578 6.412109 L 237.729980 6.412109 L 237.729980 7.335938 Z " fill="rgb(0, 0, 0)" fill-opacity="1.000000" />
<path d="M 237.892578 7.335938 L 237.892578 6.412109 L 244.729980 6.412109 L 244.729980 7.335938 Z " fill="rgb(0, 0, 0)" fill-opacity="1.000000" />
<path d="M 244.892578 7.335938 L 244.892578 6.412109 L 251.729980 6.412109 L 251.729980 7.335938 Z " fill="rgb(0, 0, 0)" fill-opacity="1.000000" />
<path d="M 251.892578 7.335938 L 251.892578 6.412109 L 258.729980 6.412109 L 258.729980 7.335938 Z " fill="rgb(0, 0, 0)" fill-opacity="1.000000" />
<path d="M 258.892578 7.335938 L 258.892578 6.412109 L 265.729980 6.412109 L 265.729980 7.335938 Z " fill="rgb(0, 0, 0)" fill-opacity="1.000000" />
<path d="M 265.892578 7.335938 L 265.892578 6.412109 L 272.729980 6.412109 L 272.729980 7.335938 Z " fill="rgb(0, 0, 0)" fill-opacity="1.000000" />
<path d="M 272.892578 7.335938 L 272.892578 6.412109 L 279.729980 6.412109 L 279.729980 7.335938 Z " fill="rgb(0, 0, 0)" fill-opacity="1.000000" />
<path d="M 279.892578 7.335938 L 279.892578 6.412109 L 286.729980 6.412109 L 286.729980 7.335938 Z " fill="rgb(0, 0, 0)" fill-opacity="1.000000" />
<path d="M 286.892578 7.335938 L 286.892578 6.412109 L 293.729980 6.412109 L 293.729980 7.335938 Z " fill="rgb(0, 0, 0)" fill-opacity="1.000000" />
<path d="M 293.892578 7.335938 L 293.892578 6.412109 L 300.729980 6.412109 L 300.729980 7.335938 Z " fill="rgb(0, 0, 0)" fill-opacity="1.000000" />
<path d="M 300.892578 7.335938 L 300.892578 6.412109 L 307.729980 6.412109 L 307.729980 7.335938 Z " fill="rgb(0, 0, 0)" fill-opacity="1.000000" />
<path d="M 307.892578 7.335938 L 307.892578 6.412109 L 314.729980 6.412109 L 314.729980 7.335938 Z " fill="rgb(0, 0, 0)" fill-opacity="1.000000" />
<path d="M 314.892578 7.335938 L 314.892578 6.412109 L 321.729980 6.412109 L 321.729980 7.335938 Z " fill="rgb(0, 0, 0)" fill-opacity="1.000000" />
<path d="M 321.892578 7.335938 L 321.892578 6.412109 L 328.729980 6.412109 L 328.729980 7.335938 Z " fill="rgb(0, 0, 0)" fill-opacity="1.000000" />
<path d="M 328.892578 7.335938 L 328.892578 6.412109 L 335.729980 6.412109 L 335.729980 7.335938 Z " fill="rgb(0, 0, 0)" fill-opacity="1.000000" />
<path d="M 335.892578 7.335938 L 335.892578 6.412109 L 342.729980 6.412109 L 342.729980 7.335938 Z " fill="rgb(0, 0, 0)" fill-opacity="1.000000" />
<path d="M 342.892578 7.335938 L 342.892578 6.412109 L 349.729980 6.412109 L 349.729980 7.335938 Z " fill="rgb(0, 0, 0)" fill-opacity="1.000000" />
<path d="M 349.892578 7.335938 L 349.892578 6.412109 L 356.729980 6.412109 L 356.729980 7.335938 Z " fill="rgb(0, 0, 0)" fill-opacity="1.000000" />
<path d="M 356.892578 7.335938 L 356.892578 6.412109 L 363.729980 6.412109 L 363.729980 7.335938 Z " fill="rgb(0, 0, 0)" fill-opacity="1.000000" />
<path d="M 363.892578 7.335938 L 363.892578 6.412109 L 370.729980 6.412109 L 370.729980 7.335938 Z " fill="rgb(0, 0, 0)" fill-opacity="1.000000" />
<path d="M 373.878906 13.319336 L 373.878906 7.335938 L 370.892578 7.335938 L 370.892578 6.412109 L 374.738281 6.412109 L 374.738281 13.319336 Z " fill="rgb(0, 0, 0)" fill-opacity="1.000000" />
<path d="M 436.878906 13.319336 L 436.878906 6.412109 L 440.729980 6.412109 L 440.729980 7.335938 L 437.738281 7.335938 L 437.738281 13.319336 Z " fill="rgb(0, 0, 0)" fill-opacity="1.000000" />
<path d="M 440.892578 7.335938 L 440.892578 6.412109 L 447.729980 6.412109 L 447.729980 7.335938 Z " fill="rgb(0, 0, 0)" fill-opacity="1.000000" />
<path d="M 447.892578 7.335938 L 447.892578 6.412109 L 454.729980 6.412109 L 454.729980 7.335938 Z " fill="rgb(0, 0, 0)" fill-opacity="1.000000" />
<path d="M 454.892578 7.335938 L 454.892578 6.412109 L 461.729980 6.412109 L 461.729980 7.335938 Z " fill="rgb(0, 0, 0)" fill-opacity="1.000000" />
<path d="M 461.892578 7.335938 L 461.892578 6.412109 L 468.729980 6.412109 L 468.729980 7.335938 Z " fill="rgb(0, 0, 0)" fill-opacity="1.000000" />
<path d="M 468.892578 7.335938 L 468.892578 6.412109 L 475.729980 6.412109 L 475.729980 7.335938 Z " fill="rgb(0, 0, 0)" fill-opacity="1.000000" />
<path d="M 475.892578 7.335938 L 475.892578 6.412109 L 482.729980 6.412109 L 482.729980 7.335938 Z " fill="rgb(0, 0, 0)" fill-opacity="1.000000" />
<path d="M 482.892578 7.335938 L 482.892578 6.412109 L 489.729980 6.412109 L 489.729980 7.335938 Z " fill="rgb(0, 0, 0)" fill-opacity="1.000000" />
<path d="M 489.892578 7.335938 L 489.892578 6.412109 L 496.729980 6.412109 L 496.729980 7.335938 Z " fill="rgb(0, 0, 0)" fill-opacity="1.000000" />
<path d="M 496.892578 7.335938 L 496.892578 6.412109 L 503.729980 6.412109 L 503.729980 7.335938 Z " fill="rgb(0, 0, 0)" fill-opacity="1.000000" />
<path d="M 503.892578 7.335938 L 503.892578 6.412109 L 510.729980 6.412109 L 510.729980 7.335938 Z " fill="rgb(0, 0, 0)" fill-opacity="1.000000" />
<path d="M 510.892578 7.335938 L 510.892578 6.412109 L 517.729980 6.412109 L 517.729980 7.335938 Z " fill="rgb(0, 0, 0)" fill-opacity="1.000000" />
<path d="M 517.892578 7.335938 L 517.892578 6.412109 L 524.729980 6.412109 L 524.729980 7.335938 Z " fill="rgb(0, 0, 0)" fill-opacity="1.000000" />
<path d="M 524.892578 7.335938 L 524.892578 6.412109 L 531.729980 6.412109 L 531.729980 7.335938 Z " fill="rgb(0, 0, 0)" fill-opacity="1.000000" />
<path d="M 531.892578 7.335938 L 531.892578 6.412109 L 538.729980 6.412109 L 538.729980 7.335938 Z " fill="rgb(0, 0, 0)" fill-opacity="1.000000" />
<path d="M 538.892578 7.335938 L 538.892578 6.412109 L 545.729980 6.412109 L 545.729980 7.335938 Z " fill="rgb(0, 0, 0)" fill-opacity="1.000000" />
<path d="M 545.892578 7.335938 L 545.892578 6.412109 L 552.729980 6.412109 L 552.729980 7.335938 Z " fill="rgb(0, 0, 0)" fill-opacity="1.000000" />
<path d="M 552.892578 7.335938 L 552.892578 6.412109 L 559.729980 6.412109 L 559.729980 7.335938 Z " fill="rgb(0, 0, 0)" fill-opacity="1.000000" />
<path d="M 559.892578 7.335938 L 559.892578 6.412109 L 566.729980 6.412109 L 566.729980 7.335938 Z " fill="rgb(0, 0, 0)" fill-opacity="1.000000" />
<path d="M 566.892578 7.335938 L 566.892578 6.412109 L 573.729980 6.412109 L 573.729980 7.335938 Z " fill="rgb(0, 0, 0)" fill-opacity="1.000000" />
<path d="M 573.892578 7.335938 L 573.892578 6.412109 L 580.729980 6.412109 L 580.729980 7.335938 Z " fill="rgb(0, 0, 0)" fill-opacity="1.000000" />
<path d="M 580.892578 7.335938 L 580.892578 6.412109 L 587.729980 6.412109 L 587.729980 7.335938 Z " fill="rgb(0, 0, 0)" fill-opacity="1.000000" />
<path d="M 590.878906 13.319336 L 590.878906 7.335938 L 587.892578 7.335938 L 587.892578 6.412109 L 591.738281 6.412109 L 591.738281 13.319336 Z " fill="rgb(0, 0, 0)" fill-opacity="1.000000" />
</svg>